<?xml version="1.0" encoding="utf-8"?>
<!-- Generator: Circuit Diagram, cdlibrary.dll 4.0.0.0 -->
<!DOCTYPE svg PUBLIC "-//W3C//DTD SVG 1.1//EN" "http://www.w3.org/Graphics/SVG/1.1/DTD/svg11.dtd">
<svg version="1.1" width="840" height="620" xmlns="http://www.w3.org/2000/svg">
	<line x1="40" y1="580" x2="70" y2="580" style="stroke:rgb(0, 0, 0);stroke-linecap:square;stroke-width:2" />
	<line x1="38" y1="580" x2="38" y2="586" style="stroke:rgb(0, 0, 0);stroke-linecap:square;stroke-width:2" />
	<line x1="30" y1="586" x2="46" y2="586" style="stroke:rgb(0, 0, 0);stroke-linecap:square;stroke-width:2" />
	<line x1="33" y1="592" x2="43" y2="592" style="stroke:rgb(0, 0, 0);stroke-linecap:square;stroke-width:2" />
	<line x1="36" y1="598" x2="40" y2="598" style="stroke:rgb(0, 0, 0);stroke-linecap:square;stroke-width:2" />
	<line x1="170" y1="480" x2="200" y2="480" style="stroke:rgb(0, 0, 0);stroke-linecap:square;stroke-width:2" />
	<line x1="200" y1="270" x2="200" y2="480" style="stroke:rgb(0, 0, 0);stroke-linecap:square;stroke-width:2" />
	<text x="780" y="180" style="font-family:Arial;font-size:11px;text-anchor:start" dominant-baseline="middle" transform="rotate(0, 780, 180)">Pump</text>
	<text x="780" y="110" style="font-family:Arial;font-size:11px;text-anchor:start" dominant-baseline="middle" transform="rotate(0, 780, 110)">Fan 2</text>
	<text x="780" y="60" style="font-family:Arial;font-size:11px;text-anchor:start" dominant-baseline="middle" transform="rotate(0, 780, 60)">Fan 1</text>
	<text x="380" y="400" style="font-family:Arial;font-size:11px;text-anchor:start" dominant-baseline="middle" transform="rotate(0, 380, 400)">(empty)</text>
	<line x1="440" y1="390" x2="440" y2="580" style="stroke:rgb(0, 0, 0);stroke-linecap:square;stroke-width:2" />
	<line x1="420" y1="390" x2="440" y2="390" style="stroke:rgb(0, 0, 0);stroke-linecap:square;stroke-width:2" />
	<line x1="250" y1="390" x2="390" y2="390" style="stroke:rgb(0, 0, 0);stroke-linecap:square;stroke-width:2" />
	<line x1="250" y1="250" x2="250" y2="390" style="stroke:rgb(0, 0, 0);stroke-linecap:square;stroke-width:2" />
	<line x1="250" y1="250" x2="280" y2="250" style="stroke:rgb(0, 0, 0);stroke-linecap:square;stroke-width:2" />
	<line x1="140" y1="90" x2="140" y2="260" style="stroke:rgb(0, 0, 0);stroke-linecap:square;stroke-width:2" />
	<line x1="140" y1="80" x2="140" y2="90" style="stroke:rgb(0, 0, 0);stroke-linecap:square;stroke-width:2" />
	<line x1="190" y1="270" x2="200" y2="270" style="stroke:rgb(0, 0, 0);stroke-linecap:square;stroke-width:2" />
	<line x1="170" y1="270" x2="190" y2="270" style="stroke:rgb(0, 0, 0);stroke-linecap:square;stroke-width:2" />
	<line x1="170" y1="60" x2="170" y2="270" style="stroke:rgb(0, 0, 0);stroke-linecap:square;stroke-width:2" />
	<line x1="140" y1="60" x2="170" y2="60" style="stroke:rgb(0, 0, 0);stroke-linecap:square;stroke-width:2" />
	<line x1="140" y1="70" x2="190" y2="70" style="stroke:rgb(0, 0, 0);stroke-linecap:square;stroke-width:2" />
	<line x1="190" y1="70" x2="190" y2="170" style="stroke:rgb(0, 0, 0);stroke-linecap:square;stroke-width:2" />
	<line x1="190" y1="170" x2="280" y2="170" style="stroke:rgb(0, 0, 0);stroke-linecap:square;stroke-width:2" />
	<line x1="440" y1="360" x2="480" y2="360" style="stroke:rgb(0, 0, 0);stroke-linecap:square;stroke-width:2" />
	<line x1="440" y1="170" x2="440" y2="360" style="stroke:rgb(0, 0, 0);stroke-linecap:square;stroke-width:2" />
	<line x1="400" y1="170" x2="440" y2="170" style="stroke:rgb(0, 0, 0);stroke-linecap:square;stroke-width:2" />
	<line x1="600" y1="290" x2="610" y2="290" style="stroke:rgb(0, 0, 0);stroke-linecap:square;stroke-width:2" />
	<line x1="610" y1="230" x2="610" y2="290" style="stroke:rgb(0, 0, 0);stroke-linecap:square;stroke-width:2" />
	<line x1="490" y1="230" x2="610" y2="230" style="stroke:rgb(0, 0, 0);stroke-linecap:square;stroke-width:2" />
	<line x1="490" y1="100" x2="490" y2="230" style="stroke:rgb(0, 0, 0);stroke-linecap:square;stroke-width:2" />
	<line x1="400" y1="100" x2="490" y2="100" style="stroke:rgb(0, 0, 0);stroke-linecap:square;stroke-width:2" />
	<line x1="600" y1="240" x2="600" y2="280" style="stroke:rgb(0, 0, 0);stroke-linecap:square;stroke-width:2" />
	<line x1="460" y1="240" x2="600" y2="240" style="stroke:rgb(0, 0, 0);stroke-linecap:square;stroke-width:2" />
	<line x1="460" y1="110" x2="460" y2="240" style="stroke:rgb(0, 0, 0);stroke-linecap:square;stroke-width:2" />
	<line x1="400" y1="110" x2="460" y2="110" style="stroke:rgb(0, 0, 0);stroke-linecap:square;stroke-width:2" />
	<line x1="220" y1="370" x2="480" y2="370" style="stroke:rgb(0, 0, 0);stroke-linecap:square;stroke-width:2" />
	<line x1="220" y1="290" x2="480" y2="290" style="stroke:rgb(0, 0, 0);stroke-linecap:square;stroke-width:2" />
	<line x1="220" y1="290" x2="220" y2="580" style="stroke:rgb(0, 0, 0);stroke-linecap:square;stroke-width:2" />
	<line x1="450" y1="270" x2="450" y2="350" style="stroke:rgb(0, 0, 0);stroke-linecap:square;stroke-width:2" />
	<line x1="450" y1="350" x2="480" y2="350" style="stroke:rgb(0, 0, 0);stroke-linecap:square;stroke-width:2" />
	<line x1="480" y1="270" x2="480" y2="280" style="stroke:rgb(0, 0, 0);stroke-linecap:square;stroke-width:2" />
	<line x1="400" y1="270" x2="480" y2="270" style="stroke:rgb(0, 0, 0);stroke-linecap:square;stroke-width:2" />
	<text x="540" y="330" style="font-family:Arial;font-size:11px;text-anchor:middle" dominant-baseline="middle" transform="rotate(0, 540, 330)">Temp/Humidity</text>
	<rect x="490" y="340" width="100" height="40" style="fill-opacity:0;fill:rgb(0, 0, 0);stroke:rgb(0, 0, 0);stroke-width:2" />
	<line x1="480" y1="350" x2="490" y2="350" style="stroke:rgb(0, 0, 0);stroke-linecap:square;stroke-width:2" />
	<text x="494" y="350" style="font-family:Arial;font-size:11px;text-anchor:start" dominant-baseline="middle" transform="rotate(0, 494, 350)">3.3V</text>
	<line x1="480" y1="360" x2="490" y2="360" style="stroke:rgb(0, 0, 0);stroke-linecap:square;stroke-width:2" />
	<text x="494" y="360" style="font-family:Arial;font-size:11px;text-anchor:start" dominant-baseline="middle" transform="rotate(0, 494, 360)">SDA</text>
	<line x1="480" y1="370" x2="490" y2="370" style="stroke:rgb(0, 0, 0);stroke-linecap:square;stroke-width:2" />
	<text x="494" y="370" style="font-family:Arial;font-size:11px;text-anchor:start" dominant-baseline="middle" transform="rotate(0, 494, 370)">GND</text>
	<text x="540" y="260" style="font-family:Arial;font-size:11px;text-anchor:middle" dominant-baseline="middle" transform="rotate(0, 540, 260)">Light Sensor</text>
	<rect x="490" y="270" width="100" height="40" style="fill-opacity:0;fill:rgb(0, 0, 0);stroke:rgb(0, 0, 0);stroke-width:2" />
	<line x1="480" y1="280" x2="490" y2="280" style="stroke:rgb(0, 0, 0);stroke-linecap:square;stroke-width:2" />
	<text x="494" y="280" style="font-family:Arial;font-size:11px;text-anchor:start" dominant-baseline="middle" transform="rotate(0, 494, 280)">3.3V</text>
	<line x1="590" y1="280" x2="600" y2="280" style="stroke:rgb(0, 0, 0);stroke-linecap:square;stroke-width:2" />
	<text x="586" y="280" style="font-family:Arial;font-size:11px;text-anchor:end" dominant-baseline="middle" transform="rotate(0, 586, 280)">Serial Data</text>
	<line x1="480" y1="290" x2="490" y2="290" style="stroke:rgb(0, 0, 0);stroke-linecap:square;stroke-width:2" />
	<text x="494" y="290" style="font-family:Arial;font-size:11px;text-anchor:start" dominant-baseline="middle" transform="rotate(0, 494, 290)">GND</text>
	<line x1="590" y1="290" x2="600" y2="290" style="stroke:rgb(0, 0, 0);stroke-linecap:square;stroke-width:2" />
	<text x="586" y="290" style="font-family:Arial;font-size:11px;text-anchor:end" dominant-baseline="middle" transform="rotate(0, 586, 290)">Serial Clock</text>
	<text x="80" y="40" style="font-family:Arial;font-size:11px;text-anchor:middle" dominant-baseline="middle" transform="rotate(0, 80, 40)">LED</text>
	<rect x="30" y="50" width="100" height="40" style="fill-opacity:0;fill:rgb(0, 0, 0);stroke:rgb(0, 0, 0);stroke-width:2" />
	<line x1="130" y1="60" x2="140" y2="60" style="stroke:rgb(0, 0, 0);stroke-linecap:square;stroke-width:2" />
	<text x="126" y="60" style="font-family:Arial;font-size:11px;text-anchor:end" dominant-baseline="middle" transform="rotate(0, 126, 60)">5V</text>
	<line x1="130" y1="70" x2="140" y2="70" style="stroke:rgb(0, 0, 0);stroke-linecap:square;stroke-width:2" />
	<text x="126" y="70" style="font-family:Arial;font-size:11px;text-anchor:end" dominant-baseline="middle" transform="rotate(0, 126, 70)">SDA</text>
	<line x1="130" y1="80" x2="140" y2="80" style="stroke:rgb(0, 0, 0);stroke-linecap:square;stroke-width:2" />
	<text x="126" y="80" style="font-family:Arial;font-size:11px;text-anchor:end" dominant-baseline="middle" transform="rotate(0, 126, 80)">GND</text>
	<line x1="390" y1="390" x2="391" y2="390" style="stroke:rgb(0, 0, 0);stroke-linecap:square;stroke-width:2" />
	<line x1="419" y1="390" x2="420" y2="390" style="stroke:rgb(0, 0, 0);stroke-linecap:square;stroke-width:2" />
	<ellipse cx="394" cy="390" rx="3" ry="3" style="fill-opacity:0;fill:rgb(0, 0, 0);stroke:rgb(0, 0, 0);stroke-width:2" />
	<ellipse cx="416" cy="390" rx="3" ry="3" style="fill-opacity:0;fill:rgb(0, 0, 0);stroke:rgb(0, 0, 0);stroke-width:2" />
	<line x1="393" y1="382" x2="417" y2="382" style="stroke:rgb(0, 0, 0);stroke-linecap:square;stroke-width:2" />
	<line x1="399" y1="376" x2="411" y2="376" style="stroke:rgb(0, 0, 0);stroke-linecap:square;stroke-width:2" />
	<line x1="405" y1="376" x2="405" y2="382" style="stroke:rgb(0, 0, 0);stroke-linecap:square;stroke-width:2" />
	<line x1="620" y1="110" x2="660" y2="110" style="stroke:rgb(0, 0, 0);stroke-linecap:square;stroke-width:2" />
	<line x1="660" y1="40" x2="660" y2="110" style="stroke:rgb(0, 0, 0);stroke-linecap:square;stroke-width:2" />
	<line x1="660" y1="40" x2="750" y2="40" style="stroke:rgb(0, 0, 0);stroke-linecap:square;stroke-width:2" />
	<line x1="730" y1="100" x2="750" y2="100" style="stroke:rgb(0, 0, 0);stroke-linecap:square;stroke-width:2" />
	<line x1="730" y1="100" x2="730" y2="140" style="stroke:rgb(0, 0, 0);stroke-linecap:square;stroke-width:2" />
	<line x1="630" y1="140" x2="730" y2="140" style="stroke:rgb(0, 0, 0);stroke-linecap:square;stroke-width:2" />
	<line x1="770" y1="80" x2="770" y2="150" style="stroke:rgb(0, 0, 0);stroke-linecap:square;stroke-width:2" />
	<line x1="750" y1="80" x2="770" y2="80" style="stroke:rgb(0, 0, 0);stroke-linecap:square;stroke-width:2" />
	<line x1="750" y1="230" x2="770" y2="230" style="stroke:rgb(0, 0, 0);stroke-linecap:square;stroke-width:2" />
	<line x1="770" y1="150" x2="770" y2="230" style="stroke:rgb(0, 0, 0);stroke-linecap:square;stroke-width:2" />
	<line x1="750" y1="150" x2="770" y2="150" style="stroke:rgb(0, 0, 0);stroke-linecap:square;stroke-width:2" />
	<line x1="750" y1="140" x2="750" y2="150" style="stroke:rgb(0, 0, 0);stroke-linecap:square;stroke-width:2" />
	<line x1="630" y1="170" x2="660" y2="170" style="stroke:rgb(0, 0, 0);stroke-linecap:square;stroke-width:2" />
	<line x1="660" y1="160" x2="660" y2="170" style="stroke:rgb(0, 0, 0);stroke-linecap:square;stroke-width:2" />
	<line x1="660" y1="160" x2="750" y2="160" style="stroke:rgb(0, 0, 0);stroke-linecap:square;stroke-width:2" />
	<line x1="750" y1="200" x2="750" y2="580" style="stroke:rgb(0, 0, 0);stroke-linecap:square;stroke-width:2" />
	<line x1="260" y1="580" x2="750" y2="580" style="stroke:rgb(0, 0, 0);stroke-linecap:square;stroke-width:2" />
	<line x1="60" y1="570" x2="60" y2="580" style="stroke:rgb(0, 0, 0);stroke-linecap:square;stroke-width:2" />
	<line x1="630" y1="160" x2="650" y2="160" style="stroke:rgb(0, 0, 0);stroke-linecap:square;stroke-width:2" />
	<line x1="630" y1="130" x2="650" y2="130" style="stroke:rgb(0, 0, 0);stroke-linecap:square;stroke-width:2" />
	<line x1="630" y1="100" x2="650" y2="100" style="stroke:rgb(0, 0, 0);stroke-linecap:square;stroke-width:2" />
	<line x1="650" y1="100" x2="650" y2="480" style="stroke:rgb(0, 0, 0);stroke-linecap:square;stroke-width:2" />
	<line x1="350" y1="480" x2="650" y2="480" style="stroke:rgb(0, 0, 0);stroke-linecap:square;stroke-width:2" />
	<line x1="750" y1="160" x2="750" y2="167" style="stroke:rgb(0, 0, 0);stroke-linecap:square;stroke-width:2" />
	<line x1="750" y1="193" x2="750" y2="200" style="stroke:rgb(0, 0, 0);stroke-linecap:square;stroke-width:2" />
	<ellipse cx="750" cy="180" rx="12" ry="12" style="fill-opacity:0;fill:rgb(0, 0, 0);stroke:rgb(0, 0, 0);stroke-width:2" />
	<text x="750" y="180" style="font-family:Arial;font-size:12px;text-anchor:middle" dominant-baseline="middle" transform="rotate(0, 750, 180)">M</text>
	<line x1="750" y1="100" x2="750" y2="107" style="stroke:rgb(0, 0, 0);stroke-linecap:square;stroke-width:2" />
	<line x1="750" y1="133" x2="750" y2="140" style="stroke:rgb(0, 0, 0);stroke-linecap:square;stroke-width:2" />
	<ellipse cx="750" cy="120" rx="12" ry="12" style="fill-opacity:0;fill:rgb(0, 0, 0);stroke:rgb(0, 0, 0);stroke-width:2" />
	<text x="750" y="120" style="font-family:Arial;font-size:12px;text-anchor:middle" dominant-baseline="middle" transform="rotate(0, 750, 120)">M</text>
	<line x1="750" y1="40" x2="750" y2="47" style="stroke:rgb(0, 0, 0);stroke-linecap:square;stroke-width:2" />
	<line x1="750" y1="73" x2="750" y2="80" style="stroke:rgb(0, 0, 0);stroke-linecap:square;stroke-width:2" />
	<ellipse cx="750" cy="60" rx="12" ry="12" style="fill-opacity:0;fill:rgb(0, 0, 0);stroke:rgb(0, 0, 0);stroke-width:2" />
	<text x="750" y="60" style="font-family:Arial;font-size:12px;text-anchor:middle" dominant-baseline="middle" transform="rotate(0, 750, 60)">M</text>
	<line x1="210" y1="60" x2="210" y2="260" style="stroke:rgb(0, 0, 0);stroke-linecap:square;stroke-width:2" />
	<line x1="210" y1="60" x2="240" y2="60" style="stroke:rgb(0, 0, 0);stroke-linecap:square;stroke-width:2" />
	<line x1="240" y1="60" x2="470" y2="60" style="stroke:rgb(0, 0, 0);stroke-linecap:square;stroke-width:2" />
	<line x1="470" y1="60" x2="470" y2="110" style="stroke:rgb(0, 0, 0);stroke-linecap:square;stroke-width:2" />
	<line x1="470" y1="110" x2="510" y2="110" style="stroke:rgb(0, 0, 0);stroke-linecap:square;stroke-width:2" />
	<line x1="200" y1="20" x2="200" y2="270" style="stroke:rgb(0, 0, 0);stroke-linecap:square;stroke-width:2" />
	<line x1="200" y1="20" x2="510" y2="20" style="stroke:rgb(0, 0, 0);stroke-linecap:square;stroke-width:2" />
	<line x1="510" y1="20" x2="510" y2="100" style="stroke:rgb(0, 0, 0);stroke-linecap:square;stroke-width:2" />
	<line x1="390" y1="140" x2="510" y2="140" style="stroke:rgb(0, 0, 0);stroke-linecap:square;stroke-width:2" />
	<line x1="460" y1="130" x2="510" y2="130" style="stroke:rgb(0, 0, 0);stroke-linecap:square;stroke-width:2" />
	<line x1="460" y1="130" x2="460" y2="160" style="stroke:rgb(0, 0, 0);stroke-linecap:square;stroke-width:2" />
	<line x1="400" y1="160" x2="460" y2="160" style="stroke:rgb(0, 0, 0);stroke-linecap:square;stroke-width:2" />
	<line x1="450" y1="120" x2="510" y2="120" style="stroke:rgb(0, 0, 0);stroke-linecap:square;stroke-width:2" />
	<line x1="450" y1="120" x2="450" y2="130" style="stroke:rgb(0, 0, 0);stroke-linecap:square;stroke-width:2" />
	<line x1="450" y1="120" x2="450" y2="150" style="stroke:rgb(0, 0, 0);stroke-linecap:square;stroke-width:2" />
	<line x1="400" y1="150" x2="450" y2="150" style="stroke:rgb(0, 0, 0);stroke-linecap:square;stroke-width:2" />
	<text x="570" y="80" style="font-family:Arial;font-size:11px;text-anchor:middle" dominant-baseline="middle" transform="rotate(0, 570, 80)">Relay Board</text>
	<rect x="520" y="90" width="100" height="100" style="fill-opacity:0;fill:rgb(0, 0, 0);stroke:rgb(0, 0, 0);stroke-width:2" />
	<line x1="510" y1="100" x2="520" y2="100" style="stroke:rgb(0, 0, 0);stroke-linecap:square;stroke-width:2" />
	<text x="524" y="100" style="font-family:Arial;font-size:11px;text-anchor:start" dominant-baseline="middle" transform="rotate(0, 524, 100)">5V</text>
	<line x1="620" y1="100" x2="630" y2="100" style="stroke:rgb(0, 0, 0);stroke-linecap:square;stroke-width:2" />
	<text x="616" y="100" style="font-family:Arial;font-size:11px;text-anchor:end" dominant-baseline="middle" transform="rotate(0, 616, 100)">1+</text>
	<line x1="510" y1="110" x2="520" y2="110" style="stroke:rgb(0, 0, 0);stroke-linecap:square;stroke-width:2" />
	<text x="524" y="110" style="font-family:Arial;font-size:11px;text-anchor:start" dominant-baseline="middle" transform="rotate(0, 524, 110)">GND</text>
	<line x1="620" y1="110" x2="630" y2="110" style="stroke:rgb(0, 0, 0);stroke-linecap:square;stroke-width:2" />
	<text x="616" y="110" style="font-family:Arial;font-size:11px;text-anchor:end" dominant-baseline="middle" transform="rotate(0, 616, 110)">NO</text>
	<line x1="510" y1="120" x2="520" y2="120" style="stroke:rgb(0, 0, 0);stroke-linecap:square;stroke-width:2" />
	<text x="524" y="120" style="font-family:Arial;font-size:11px;text-anchor:start" dominant-baseline="middle" transform="rotate(0, 524, 120)">1</text>
	<line x1="620" y1="120" x2="630" y2="120" style="stroke:rgb(0, 0, 0);stroke-linecap:square;stroke-width:2" />
	<text x="616" y="120" style="font-family:Arial;font-size:11px;text-anchor:end" dominant-baseline="middle" transform="rotate(0, 616, 120)">NC</text>
	<line x1="510" y1="130" x2="520" y2="130" style="stroke:rgb(0, 0, 0);stroke-linecap:square;stroke-width:2" />
	<text x="524" y="130" style="font-family:Arial;font-size:11px;text-anchor:start" dominant-baseline="middle" transform="rotate(0, 524, 130)">2</text>
	<line x1="620" y1="130" x2="630" y2="130" style="stroke:rgb(0, 0, 0);stroke-linecap:square;stroke-width:2" />
	<text x="616" y="130" style="font-family:Arial;font-size:11px;text-anchor:end" dominant-baseline="middle" transform="rotate(0, 616, 130)">2+</text>
	<line x1="510" y1="140" x2="520" y2="140" style="stroke:rgb(0, 0, 0);stroke-linecap:square;stroke-width:2" />
	<text x="524" y="140" style="font-family:Arial;font-size:11px;text-anchor:start" dominant-baseline="middle" transform="rotate(0, 524, 140)">3</text>
	<line x1="620" y1="140" x2="630" y2="140" style="stroke:rgb(0, 0, 0);stroke-linecap:square;stroke-width:2" />
	<text x="616" y="140" style="font-family:Arial;font-size:11px;text-anchor:end" dominant-baseline="middle" transform="rotate(0, 616, 140)">NO</text>
	<line x1="510" y1="150" x2="520" y2="150" style="stroke:rgb(0, 0, 0);stroke-linecap:square;stroke-width:2" />
	<text x="524" y="150" style="font-family:Arial;font-size:11px;text-anchor:start" dominant-baseline="middle" transform="rotate(0, 524, 150)">4</text>
	<line x1="620" y1="150" x2="630" y2="150" style="stroke:rgb(0, 0, 0);stroke-linecap:square;stroke-width:2" />
	<text x="616" y="150" style="font-family:Arial;font-size:11px;text-anchor:end" dominant-baseline="middle" transform="rotate(0, 616, 150)">NC</text>
	<line x1="620" y1="160" x2="630" y2="160" style="stroke:rgb(0, 0, 0);stroke-linecap:square;stroke-width:2" />
	<text x="616" y="160" style="font-family:Arial;font-size:11px;text-anchor:end" dominant-baseline="middle" transform="rotate(0, 616, 160)">3+</text>
	<line x1="620" y1="170" x2="630" y2="170" style="stroke:rgb(0, 0, 0);stroke-linecap:square;stroke-width:2" />
	<text x="616" y="170" style="font-family:Arial;font-size:11px;text-anchor:end" dominant-baseline="middle" transform="rotate(0, 616, 170)">NO</text>
	<line x1="620" y1="180" x2="630" y2="180" style="stroke:rgb(0, 0, 0);stroke-linecap:square;stroke-width:2" />
	<text x="616" y="180" style="font-family:Arial;font-size:11px;text-anchor:end" dominant-baseline="middle" transform="rotate(0, 616, 180)">NC</text>
	<line x1="60" y1="260" x2="280" y2="260" style="stroke:rgb(0, 0, 0);stroke-linecap:square;stroke-width:2" />
	<line x1="60" y1="260" x2="60" y2="570" style="stroke:rgb(0, 0, 0);stroke-linecap:square;stroke-width:2" />
	<line x1="190" y1="270" x2="280" y2="270" style="stroke:rgb(0, 0, 0);stroke-linecap:square;stroke-width:2" />
	<line x1="260" y1="480" x2="260" y2="580" style="stroke:rgb(0, 0, 0);stroke-linecap:square;stroke-width:2" />
	<line x1="50" y1="580" x2="80" y2="580" style="stroke:rgb(0, 0, 0);stroke-linecap:square;stroke-width:2" />
	<line x1="80" y1="480" x2="80" y2="580" style="stroke:rgb(0, 0, 0);stroke-linecap:square;stroke-width:2" />
	<line x1="200" y1="580" x2="260" y2="580" style="stroke:rgb(0, 0, 0);stroke-linecap:square;stroke-width:2" />
	<line x1="198" y1="580" x2="198" y2="586" style="stroke:rgb(0, 0, 0);stroke-linecap:square;stroke-width:2" />
	<line x1="190" y1="586" x2="206" y2="586" style="stroke:rgb(0, 0, 0);stroke-linecap:square;stroke-width:2" />
	<line x1="193" y1="592" x2="203" y2="592" style="stroke:rgb(0, 0, 0);stroke-linecap:square;stroke-width:2" />
	<line x1="196" y1="598" x2="200" y2="598" style="stroke:rgb(0, 0, 0);stroke-linecap:square;stroke-width:2" />
	<text x="320" y="460" style="font-family:Arial;font-size:11px;text-anchor:start" dominant-baseline="middle" transform="rotate(0, 320, 460)">12V</text>
	<text x="150" y="430" style="font-family:Arial;font-size:11px;text-anchor:start" dominant-baseline="middle" transform="rotate(0, 150, 430)">5V</text>
	<line x1="350" y1="480" x2="321" y2="480" style="stroke:rgb(0, 0, 0);stroke-linecap:square;stroke-width:2" />
	<ellipse cx="305" cy="480" rx="16" ry="16" style="fill-opacity:0;fill:rgb(0, 0, 0);stroke:rgb(0, 0, 0);stroke-width:2" />
	<line x1="289" y1="480" x2="260" y2="480" style="stroke:rgb(0, 0, 0);stroke-linecap:square;stroke-width:2" />
	<path d="M 305,480 M 315,480 L 307,480 M 311,476 L 311,484 M 301,480 L 293,480" style="fill-opacity:0;fill:rgb(0, 0, 0);stroke:rgb(0, 0, 0);stroke-linecap:square;stroke-width:2" />
	<line x1="190" y1="480" x2="151" y2="480" style="stroke:rgb(0, 0, 0);stroke-linecap:square;stroke-width:2" />
	<ellipse cx="135" cy="480" rx="16" ry="16" style="fill-opacity:0;fill:rgb(0, 0, 0);stroke:rgb(0, 0, 0);stroke-width:2" />
	<line x1="119" y1="480" x2="80" y2="480" style="stroke:rgb(0, 0, 0);stroke-linecap:square;stroke-width:2" />
	<path d="M 135,480 M 145,480 L 137,480 M 141,476 L 141,484 M 131,480 L 123,480" style="fill-opacity:0;fill:rgb(0, 0, 0);stroke:rgb(0, 0, 0);stroke-linecap:square;stroke-width:2" />
	<rect x="290" y="90" width="100" height="190" style="fill-opacity:0;fill:rgb(0, 0, 0);stroke:rgb(0, 0, 0);stroke-width:2" />
	<text x="340" y="80" style="font-family:Arial;font-size:11px;text-anchor:middle" dominant-baseline="middle" transform="rotate(0, 340, 80)">ESP32</text>
	<line x1="280" y1="100" x2="290" y2="100" style="stroke:rgb(0, 0, 0);stroke-linecap:square;stroke-width:2" />
	<text x="294" y="100" style="font-family:Arial;font-size:10px;text-anchor:start" dominant-baseline="middle" transform="rotate(0, 294, 100)">EN</text>
	<text x="286" y="98" style="font-family:Arial;font-size:8px;text-anchor:end" dominant-baseline="baseline" transform="rotate(0, 286, 98)"></text>
	<line x1="390" y1="100" x2="400" y2="100" style="stroke:rgb(0, 0, 0);stroke-linecap:square;stroke-width:2" />
	<text x="386" y="100" style="font-family:Arial;font-size:10px;text-anchor:end" dominant-baseline="middle" transform="rotate(0, 386, 100)">GPIO23</text>
	<text x="394" y="98" style="font-family:Arial;font-size:8px;text-anchor:start" dominant-baseline="baseline" transform="rotate(0, 394, 98)"></text>
	<line x1="280" y1="110" x2="290" y2="110" style="stroke:rgb(0, 0, 0);stroke-linecap:square;stroke-width:2" />
	<text x="294" y="110" style="font-family:Arial;font-size:10px;text-anchor:start" dominant-baseline="middle" transform="rotate(0, 294, 110)">GPIO36</text>
	<text x="286" y="108" style="font-family:Arial;font-size:8px;text-anchor:end" dominant-baseline="baseline" transform="rotate(0, 286, 108)"></text>
	<line x1="390" y1="110" x2="400" y2="110" style="stroke:rgb(0, 0, 0);stroke-linecap:square;stroke-width:2" />
	<text x="386" y="110" style="font-family:Arial;font-size:10px;text-anchor:end" dominant-baseline="middle" transform="rotate(0, 386, 110)">GPIO22</text>
	<text x="394" y="108" style="font-family:Arial;font-size:8px;text-anchor:start" dominant-baseline="baseline" transform="rotate(0, 394, 108)"></text>
	<line x1="280" y1="120" x2="290" y2="120" style="stroke:rgb(0, 0, 0);stroke-linecap:square;stroke-width:2" />
	<text x="294" y="120" style="font-family:Arial;font-size:10px;text-anchor:start" dominant-baseline="middle" transform="rotate(0, 294, 120)">GPIO39</text>
	<text x="286" y="118" style="font-family:Arial;font-size:8px;text-anchor:end" dominant-baseline="baseline" transform="rotate(0, 286, 118)"></text>
	<line x1="390" y1="120" x2="400" y2="120" style="stroke:rgb(0, 0, 0);stroke-linecap:square;stroke-width:2" />
	<text x="386" y="120" style="font-family:Arial;font-size:10px;text-anchor:end" dominant-baseline="middle" transform="rotate(0, 386, 120)">GPIO1</text>
	<text x="394" y="118" style="font-family:Arial;font-size:8px;text-anchor:start" dominant-baseline="baseline" transform="rotate(0, 394, 118)"></text>
	<line x1="280" y1="130" x2="290" y2="130" style="stroke:rgb(0, 0, 0);stroke-linecap:square;stroke-width:2" />
	<text x="294" y="130" style="font-family:Arial;font-size:10px;text-anchor:start" dominant-baseline="middle" transform="rotate(0, 294, 130)">GPIO34</text>
	<text x="286" y="128" style="font-family:Arial;font-size:8px;text-anchor:end" dominant-baseline="baseline" transform="rotate(0, 286, 128)"></text>
	<line x1="390" y1="130" x2="400" y2="130" style="stroke:rgb(0, 0, 0);stroke-linecap:square;stroke-width:2" />
	<text x="386" y="130" style="font-family:Arial;font-size:10px;text-anchor:end" dominant-baseline="middle" transform="rotate(0, 386, 130)">GPIO3</text>
	<text x="394" y="128" style="font-family:Arial;font-size:8px;text-anchor:start" dominant-baseline="baseline" transform="rotate(0, 394, 128)"></text>
	<line x1="280" y1="140" x2="290" y2="140" style="stroke:rgb(0, 0, 0);stroke-linecap:square;stroke-width:2" />
	<text x="294" y="140" style="font-family:Arial;font-size:10px;text-anchor:start" dominant-baseline="middle" transform="rotate(0, 294, 140)">GPIO35</text>
	<text x="286" y="138" style="font-family:Arial;font-size:8px;text-anchor:end" dominant-baseline="baseline" transform="rotate(0, 286, 138)"></text>
	<line x1="390" y1="140" x2="400" y2="140" style="stroke:rgb(0, 0, 0);stroke-linecap:square;stroke-width:2" />
	<text x="386" y="140" style="font-family:Arial;font-size:10px;text-anchor:end" dominant-baseline="middle" transform="rotate(0, 386, 140)">GPIO21</text>
	<text x="394" y="138" style="font-family:Arial;font-size:8px;text-anchor:start" dominant-baseline="baseline" transform="rotate(0, 394, 138)"></text>
	<line x1="280" y1="150" x2="290" y2="150" style="stroke:rgb(0, 0, 0);stroke-linecap:square;stroke-width:2" />
	<text x="294" y="150" style="font-family:Arial;font-size:10px;text-anchor:start" dominant-baseline="middle" transform="rotate(0, 294, 150)">GPIO32</text>
	<text x="286" y="148" style="font-family:Arial;font-size:8px;text-anchor:end" dominant-baseline="baseline" transform="rotate(0, 286, 148)"></text>
	<line x1="390" y1="150" x2="400" y2="150" style="stroke:rgb(0, 0, 0);stroke-linecap:square;stroke-width:2" />
	<text x="386" y="150" style="font-family:Arial;font-size:10px;text-anchor:end" dominant-baseline="middle" transform="rotate(0, 386, 150)">GPIO19</text>
	<text x="394" y="148" style="font-family:Arial;font-size:8px;text-anchor:start" dominant-baseline="baseline" transform="rotate(0, 394, 148)"></text>
	<line x1="280" y1="160" x2="290" y2="160" style="stroke:rgb(0, 0, 0);stroke-linecap:square;stroke-width:2" />
	<text x="294" y="160" style="font-family:Arial;font-size:10px;text-anchor:start" dominant-baseline="middle" transform="rotate(0, 294, 160)">GPIO33</text>
	<text x="286" y="158" style="font-family:Arial;font-size:8px;text-anchor:end" dominant-baseline="baseline" transform="rotate(0, 286, 158)"></text>
	<line x1="390" y1="160" x2="400" y2="160" style="stroke:rgb(0, 0, 0);stroke-linecap:square;stroke-width:2" />
	<text x="386" y="160" style="font-family:Arial;font-size:10px;text-anchor:end" dominant-baseline="middle" transform="rotate(0, 386, 160)">GPIO18</text>
	<text x="394" y="158" style="font-family:Arial;font-size:8px;text-anchor:start" dominant-baseline="baseline" transform="rotate(0, 394, 158)"></text>
	<line x1="280" y1="170" x2="290" y2="170" style="stroke:rgb(0, 0, 0);stroke-linecap:square;stroke-width:2" />
	<text x="294" y="170" style="font-family:Arial;font-size:10px;text-anchor:start" dominant-baseline="middle" transform="rotate(0, 294, 170)">GPIO25</text>
	<text x="286" y="168" style="font-family:Arial;font-size:8px;text-anchor:end" dominant-baseline="baseline" transform="rotate(0, 286, 168)"></text>
	<line x1="390" y1="170" x2="400" y2="170" style="stroke:rgb(0, 0, 0);stroke-linecap:square;stroke-width:2" />
	<text x="386" y="170" style="font-family:Arial;font-size:10px;text-anchor:end" dominant-baseline="middle" transform="rotate(0, 386, 170)">GPIO5</text>
	<text x="394" y="168" style="font-family:Arial;font-size:8px;text-anchor:start" dominant-baseline="baseline" transform="rotate(0, 394, 168)"></text>
	<line x1="280" y1="180" x2="290" y2="180" style="stroke:rgb(0, 0, 0);stroke-linecap:square;stroke-width:2" />
	<text x="294" y="180" style="font-family:Arial;font-size:10px;text-anchor:start" dominant-baseline="middle" transform="rotate(0, 294, 180)">GPIO26</text>
	<text x="286" y="178" style="font-family:Arial;font-size:8px;text-anchor:end" dominant-baseline="baseline" transform="rotate(0, 286, 178)"></text>
	<line x1="390" y1="180" x2="400" y2="180" style="stroke:rgb(0, 0, 0);stroke-linecap:square;stroke-width:2" />
	<text x="386" y="180" style="font-family:Arial;font-size:10px;text-anchor:end" dominant-baseline="middle" transform="rotate(0, 386, 180)">GPIO17</text>
	<text x="394" y="178" style="font-family:Arial;font-size:8px;text-anchor:start" dominant-baseline="baseline" transform="rotate(0, 394, 178)"></text>
	<line x1="280" y1="190" x2="290" y2="190" style="stroke:rgb(0, 0, 0);stroke-linecap:square;stroke-width:2" />
	<text x="294" y="190" style="font-family:Arial;font-size:10px;text-anchor:start" dominant-baseline="middle" transform="rotate(0, 294, 190)">GPIO27</text>
	<text x="286" y="188" style="font-family:Arial;font-size:8px;text-anchor:end" dominant-baseline="baseline" transform="rotate(0, 286, 188)"></text>
	<line x1="390" y1="190" x2="400" y2="190" style="stroke:rgb(0, 0, 0);stroke-linecap:square;stroke-width:2" />
	<text x="386" y="190" style="font-family:Arial;font-size:10px;text-anchor:end" dominant-baseline="middle" transform="rotate(0, 386, 190)">GPIO16</text>
	<text x="394" y="188" style="font-family:Arial;font-size:8px;text-anchor:start" dominant-baseline="baseline" transform="rotate(0, 394, 188)"></text>
	<line x1="280" y1="200" x2="290" y2="200" style="stroke:rgb(0, 0, 0);stroke-linecap:square;stroke-width:2" />
	<text x="294" y="200" style="font-family:Arial;font-size:10px;text-anchor:start" dominant-baseline="middle" transform="rotate(0, 294, 200)">GPIO14</text>
	<text x="286" y="198" style="font-family:Arial;font-size:8px;text-anchor:end" dominant-baseline="baseline" transform="rotate(0, 286, 198)"></text>
	<line x1="390" y1="200" x2="400" y2="200" style="stroke:rgb(0, 0, 0);stroke-linecap:square;stroke-width:2" />
	<text x="386" y="200" style="font-family:Arial;font-size:10px;text-anchor:end" dominant-baseline="middle" transform="rotate(0, 386, 200)">GPIO4</text>
	<text x="394" y="198" style="font-family:Arial;font-size:8px;text-anchor:start" dominant-baseline="baseline" transform="rotate(0, 394, 198)"></text>
	<line x1="280" y1="210" x2="290" y2="210" style="stroke:rgb(0, 0, 0);stroke-linecap:square;stroke-width:2" />
	<text x="294" y="210" style="font-family:Arial;font-size:10px;text-anchor:start" dominant-baseline="middle" transform="rotate(0, 294, 210)">GPIO12</text>
	<text x="286" y="208" style="font-family:Arial;font-size:8px;text-anchor:end" dominant-baseline="baseline" transform="rotate(0, 286, 208)"></text>
	<line x1="390" y1="210" x2="400" y2="210" style="stroke:rgb(0, 0, 0);stroke-linecap:square;stroke-width:2" />
	<text x="386" y="210" style="font-family:Arial;font-size:10px;text-anchor:end" dominant-baseline="middle" transform="rotate(0, 386, 210)">GPIO2</text>
	<text x="394" y="208" style="font-family:Arial;font-size:8px;text-anchor:start" dominant-baseline="baseline" transform="rotate(0, 394, 208)"></text>
	<line x1="280" y1="220" x2="290" y2="220" style="stroke:rgb(0, 0, 0);stroke-linecap:square;stroke-width:2" />
	<text x="294" y="220" style="font-family:Arial;font-size:10px;text-anchor:start" dominant-baseline="middle" transform="rotate(0, 294, 220)">GPIO13</text>
	<text x="286" y="218" style="font-family:Arial;font-size:8px;text-anchor:end" dominant-baseline="baseline" transform="rotate(0, 286, 218)"></text>
	<line x1="390" y1="220" x2="400" y2="220" style="stroke:rgb(0, 0, 0);stroke-linecap:square;stroke-width:2" />
	<text x="386" y="220" style="font-family:Arial;font-size:10px;text-anchor:end" dominant-baseline="middle" transform="rotate(0, 386, 220)">GPIO15</text>
	<text x="394" y="218" style="font-family:Arial;font-size:8px;text-anchor:start" dominant-baseline="baseline" transform="rotate(0, 394, 218)"></text>
	<line x1="280" y1="230" x2="290" y2="230" style="stroke:rgb(0, 0, 0);stroke-linecap:square;stroke-width:2" />
	<text x="294" y="230" style="font-family:Arial;font-size:10px;text-anchor:start" dominant-baseline="middle" transform="rotate(0, 294, 230)">GPIO9</text>
	<text x="286" y="228" style="font-family:Arial;font-size:8px;text-anchor:end" dominant-baseline="baseline" transform="rotate(0, 286, 228)"></text>
	<line x1="390" y1="230" x2="400" y2="230" style="stroke:rgb(0, 0, 0);stroke-linecap:square;stroke-width:2" />
	<text x="386" y="230" style="font-family:Arial;font-size:10px;text-anchor:end" dominant-baseline="middle" transform="rotate(0, 386, 230)">GPIO0</text>
	<text x="394" y="228" style="font-family:Arial;font-size:8px;text-anchor:start" dominant-baseline="baseline" transform="rotate(0, 394, 228)"></text>
	<line x1="280" y1="240" x2="290" y2="240" style="stroke:rgb(0, 0, 0);stroke-linecap:square;stroke-width:2" />
	<text x="294" y="240" style="font-family:Arial;font-size:10px;text-anchor:start" dominant-baseline="middle" transform="rotate(0, 294, 240)">GPIO10</text>
	<text x="286" y="238" style="font-family:Arial;font-size:8px;text-anchor:end" dominant-baseline="baseline" transform="rotate(0, 286, 238)"></text>
	<line x1="390" y1="240" x2="400" y2="240" style="stroke:rgb(0, 0, 0);stroke-linecap:square;stroke-width:2" />
	<text x="386" y="240" style="font-family:Arial;font-size:10px;text-anchor:end" dominant-baseline="middle" transform="rotate(0, 386, 240)">GPIO8</text>
	<text x="394" y="238" style="font-family:Arial;font-size:8px;text-anchor:start" dominant-baseline="baseline" transform="rotate(0, 394, 238)"></text>
	<line x1="280" y1="250" x2="290" y2="250" style="stroke:rgb(0, 0, 0);stroke-linecap:square;stroke-width:2" />
	<text x="294" y="250" style="font-family:Arial;font-size:10px;text-anchor:start" dominant-baseline="middle" transform="rotate(0, 294, 250)">GPIO11</text>
	<text x="286" y="248" style="font-family:Arial;font-size:8px;text-anchor:end" dominant-baseline="baseline" transform="rotate(0, 286, 248)"></text>
	<line x1="390" y1="250" x2="400" y2="250" style="stroke:rgb(0, 0, 0);stroke-linecap:square;stroke-width:2" />
	<text x="386" y="250" style="font-family:Arial;font-size:10px;text-anchor:end" dominant-baseline="middle" transform="rotate(0, 386, 250)">GPIO7</text>
	<text x="394" y="248" style="font-family:Arial;font-size:8px;text-anchor:start" dominant-baseline="baseline" transform="rotate(0, 394, 248)"></text>
	<line x1="280" y1="260" x2="290" y2="260" style="stroke:rgb(0, 0, 0);stroke-linecap:square;stroke-width:2" />
	<text x="294" y="260" style="font-family:Arial;font-size:10px;text-anchor:start" dominant-baseline="middle" transform="rotate(0, 294, 260)">GND</text>
	<text x="286" y="258" style="font-family:Arial;font-size:8px;text-anchor:end" dominant-baseline="baseline" transform="rotate(0, 286, 258)"></text>
	<line x1="390" y1="260" x2="400" y2="260" style="stroke:rgb(0, 0, 0);stroke-linecap:square;stroke-width:2" />
	<text x="386" y="260" style="font-family:Arial;font-size:10px;text-anchor:end" dominant-baseline="middle" transform="rotate(0, 386, 260)">GPIO6</text>
	<text x="394" y="258" style="font-family:Arial;font-size:8px;text-anchor:start" dominant-baseline="baseline" transform="rotate(0, 394, 258)"></text>
	<line x1="280" y1="270" x2="290" y2="270" style="stroke:rgb(0, 0, 0);stroke-linecap:square;stroke-width:2" />
	<text x="294" y="270" style="font-family:Arial;font-size:10px;text-anchor:start" dominant-baseline="middle" transform="rotate(0, 294, 270)">VIN</text>
	<text x="286" y="268" style="font-family:Arial;font-size:8px;text-anchor:end" dominant-baseline="baseline" transform="rotate(0, 286, 268)"></text>
	<line x1="390" y1="270" x2="400" y2="270" style="stroke:rgb(0, 0, 0);stroke-linecap:square;stroke-width:2" />
	<text x="386" y="270" style="font-family:Arial;font-size:10px;text-anchor:end" dominant-baseline="middle" transform="rotate(0, 386, 270)">3V3</text>
	<text x="394" y="268" style="font-family:Arial;font-size:8px;text-anchor:start" dominant-baseline="baseline" transform="rotate(0, 394, 268)"></text>
	<ellipse cx="60" cy="580" rx="2" ry="2" style="fill-opacity:1;fill:rgb(0, 0, 0);stroke:rgb(0, 0, 0);stroke-width:2" />
	<ellipse cx="200" cy="270" rx="2" ry="2" style="fill-opacity:1;fill:rgb(0, 0, 0);stroke:rgb(0, 0, 0);stroke-width:2" />
	<ellipse cx="440" cy="580" rx="2" ry="2" style="fill-opacity:1;fill:rgb(0, 0, 0);stroke:rgb(0, 0, 0);stroke-width:2" />
	<ellipse cx="140" cy="260" rx="2" ry="2" style="fill-opacity:1;fill:rgb(0, 0, 0);stroke:rgb(0, 0, 0);stroke-width:2" />
	<ellipse cx="460" cy="130" rx="2" ry="2" style="fill-opacity:1;fill:rgb(0, 0, 0);stroke:rgb(0, 0, 0);stroke-width:2" />
	<ellipse cx="460" cy="160" rx="2" ry="2" style="fill-opacity:1;fill:rgb(0, 0, 0);stroke:rgb(0, 0, 0);stroke-width:2" />
	<ellipse cx="220" cy="370" rx="2" ry="2" style="fill-opacity:1;fill:rgb(0, 0, 0);stroke:rgb(0, 0, 0);stroke-width:2" />
	<ellipse cx="220" cy="580" rx="2" ry="2" style="fill-opacity:1;fill:rgb(0, 0, 0);stroke:rgb(0, 0, 0);stroke-width:2" />
	<ellipse cx="450" cy="270" rx="2" ry="2" style="fill-opacity:1;fill:rgb(0, 0, 0);stroke:rgb(0, 0, 0);stroke-width:2" />
	<ellipse cx="770" cy="150" rx="2" ry="2" style="fill-opacity:1;fill:rgb(0, 0, 0);stroke:rgb(0, 0, 0);stroke-width:2" />
	<ellipse cx="750" cy="230" rx="2" ry="2" style="fill-opacity:1;fill:rgb(0, 0, 0);stroke:rgb(0, 0, 0);stroke-width:2" />
	<ellipse cx="260" cy="580" rx="2" ry="2" style="fill-opacity:1;fill:rgb(0, 0, 0);stroke:rgb(0, 0, 0);stroke-width:2" />
	<ellipse cx="650" cy="160" rx="2" ry="2" style="fill-opacity:1;fill:rgb(0, 0, 0);stroke:rgb(0, 0, 0);stroke-width:2" />
	<ellipse cx="650" cy="130" rx="2" ry="2" style="fill-opacity:1;fill:rgb(0, 0, 0);stroke:rgb(0, 0, 0);stroke-width:2" />
	<ellipse cx="210" cy="260" rx="2" ry="2" style="fill-opacity:1;fill:rgb(0, 0, 0);stroke:rgb(0, 0, 0);stroke-width:2" />
	<ellipse cx="450" cy="120" rx="2" ry="2" style="fill-opacity:1;fill:rgb(0, 0, 0);stroke:rgb(0, 0, 0);stroke-width:2" />
</svg>